<?xml version="1.0" encoding="utf-8"?>
<!-- Generator: Adobe Illustrator 22.0.1, SVG Export Plug-In . SVG Version: 6.00 Build 0)  -->
<svg version="1.1" id="Ebene_1" xmlns="http://www.w3.org/2000/svg" xmlns:xlink="http://www.w3.org/1999/xlink" x="0px" y="0px"
	 viewBox="0 0 198.4 81.2" style="enable-background:new 0 0 198.4 81.2;" xml:space="preserve">
<style type="text/css">
	.st0{fill:#003CA6;}
	.st1{fill:#FFFFFF;}
</style>
<rect x="0" y="0" class="st0" width="198.4" height="81.2"/>
<g>
	<g>
		<path class="st1" d="M47.2,59.6h-5.4l-0.4-0.4l0.1-3.2h-0.2c0,0-2.6,4.3-8.2,4.3c-4.2,0-8.2-1.7-8.2-8.5c0-6.9,5.2-9.2,10.6-9.2
			h5.9v-2.7c0-2.7-2-4.3-5.4-4.3c-3.8,0-8.5,0.6-8.5,0.6l-0.4-0.4V31c0,0,4.9-0.6,9.9-0.6c4.6,0,10.2,1.2,10.2,8.1V59.6z M41.4,47.1
			H37c-4.2,0-6.3,0.9-6.3,4.2c0,3.2,2.3,3.8,4.5,3.8c2,0,4.2-0.5,6.2-3.1V47.1z"/>
		<path class="st1" d="M76.2,59.6h-5.9V39.3c0-3.2-1.8-3.9-4.1-3.9c-2.1,0-4.1,0.9-6.5,3.7v20.5h-5.9V31h5.5l0.4,0.4l-0.1,3.2h0.2
			c0,0,2.5-4.3,8.2-4.3c4.6,0,8.2,1.8,8.2,8.6V59.6z"/>
		<path class="st1" d="M103.4,47.1H88.1v3c0,4.4,2.9,4.9,6.3,4.9c3.8,0,7.7-0.6,7.7-0.6l0.4,0.4v4.8c0,0-4.5,0.6-9.5,0.6
			c-5.1,0-10.8-1.6-10.8-8.4V39.4c0-7.1,5.8-9.1,11.2-9.1c5.4,0,11.2,1.8,11.2,9.1c0,3.1-0.5,6.7-0.6,7.1L103.4,47.1z M88.1,39v3.5
			h10.1c0.1-0.7,0.3-2.1,0.2-3.4c-0.1-2.7-2.1-3.7-5-3.7C90.3,35.4,88.1,36.5,88.1,39z"/>
		<path class="st1" d="M133.3,59.6h-7.1l-5.6-9.6l-7.7,13.1h-7.1l11-18L108.1,31h7l5.5,9.5L126,31h7l-8.7,14.2L133.3,59.6z"/>
		<path class="st1" d="M143.6,31v28.7h-5.9V31H143.6z"/>
		<path class="st1" d="M171.4,59.6h-5.4l-0.4-0.4l0.1-3.2h-0.2c0,0-2.6,4.3-8.2,4.3c-4.2,0-8.2-1.7-8.2-8.5c0-6.9,5.2-9.2,10.6-9.2
			h5.9v-2.7c0-2.7-2-4.3-5.4-4.3c-3.8,0-8.5,0.6-8.5,0.6l-0.4-0.4V31c0,0,4.9-0.6,9.9-0.6c4.6,0,10.2,1.2,10.2,8.1V59.6z
			 M165.5,47.1h-4.3c-4.1,0-6.3,0.9-6.3,4.2c0,3.2,2.3,3.8,4.5,3.8c2,0,4.2-0.5,6.2-3.1V47.1z"/>
	</g>
	<polygon class="st1" points="140.7,19.4 142,18 142.4,19.8 144.2,19.2 143.8,21 145.6,21.2 144.4,22.6 145.9,23.7 144.2,24.4 
		145,26 143.2,25.9 143.1,27.7 141.6,26.7 140.7,28.3 139.8,26.7 138.3,27.7 138.2,25.9 136.4,26 137.2,24.4 135.5,23.7 137,22.6 
		135.8,21.2 137.6,21 137.3,19.2 139,19.8 139.5,18 	"/>
</g>
</svg>
