<?xml version="1.0" encoding="utf-8"?>
<!-- Generator: Adobe Illustrator 24.2.3, SVG Export Plug-In . SVG Version: 6.00 Build 0)  -->
<svg version="1.1" id="Ebene_1" xmlns="http://www.w3.org/2000/svg" xmlns:xlink="http://www.w3.org/1999/xlink" x="0px" y="0px"
	 viewBox="0 0 405 465" style="enable-background:new 0 0 405 465;" xml:space="preserve">
<style type="text/css">
	.st0{clip-path:url(#SVGID_2_);}
	.st1{clip-path:url(#SVGID_4_);fill-rule:evenodd;clip-rule:evenodd;fill:#006479;}
	.st2{clip-path:url(#SVGID_6_);fill-rule:evenodd;clip-rule:evenodd;fill:#2391A9;}
	.st3{clip-path:url(#SVGID_8_);fill-rule:evenodd;clip-rule:evenodd;fill:#2391A9;}
	.st4{clip-path:url(#SVGID_10_);fill-rule:evenodd;clip-rule:evenodd;fill:#2391A9;}
	.st5{clip-path:url(#SVGID_12_);fill-rule:evenodd;clip-rule:evenodd;fill:#2391A9;}
	.st6{clip-path:url(#SVGID_14_);fill-rule:evenodd;clip-rule:evenodd;fill:#2391A9;}
	.st7{clip-path:url(#SVGID_16_);fill-rule:evenodd;clip-rule:evenodd;fill:#2391A9;}
	.st8{clip-path:url(#SVGID_18_);fill-rule:evenodd;clip-rule:evenodd;fill:#2391A9;}
	.st9{clip-path:url(#SVGID_20_);fill-rule:evenodd;clip-rule:evenodd;fill:#2391A9;}
	.st10{clip-path:url(#SVGID_22_);fill-rule:evenodd;clip-rule:evenodd;fill:#2391A9;}
	.st11{clip-path:url(#SVGID_24_);fill-rule:evenodd;clip-rule:evenodd;fill:#2391A9;}
	.st12{clip-path:url(#SVGID_26_);fill-rule:evenodd;clip-rule:evenodd;fill:#2391A9;}
	.st13{clip-path:url(#SVGID_28_);fill-rule:evenodd;clip-rule:evenodd;fill:#2391A9;}
	.st14{clip-path:url(#SVGID_30_);fill-rule:evenodd;clip-rule:evenodd;fill:#2391A9;}
	.st15{clip-path:url(#SVGID_32_);fill-rule:evenodd;clip-rule:evenodd;fill:#2391A9;}
	.st16{clip-path:url(#SVGID_34_);fill-rule:evenodd;clip-rule:evenodd;fill:#2391A9;}
	.st17{clip-path:url(#SVGID_36_);fill-rule:evenodd;clip-rule:evenodd;fill:#2391A9;}
	.st18{clip-path:url(#SVGID_38_);fill-rule:evenodd;clip-rule:evenodd;fill:#2391A9;}
	.st19{clip-path:url(#SVGID_40_);fill-rule:evenodd;clip-rule:evenodd;fill:#006479;}
</style>
<g>
	<g>
		<g>
			<defs>
				<rect id="SVGID_1_" x="-97" y="-189.1" width="595.3" height="841.9"/>
			</defs>
			<clipPath id="SVGID_2_">
				<use xlink:href="#SVGID_1_"  style="overflow:visible;"/>
			</clipPath>
			<g class="st0">
				<g>
					<defs>
						<rect id="SVGID_3_" x="-97" y="-189.1" width="595.3" height="841.9"/>
					</defs>
					<clipPath id="SVGID_4_">
						<use xlink:href="#SVGID_3_"  style="overflow:visible;"/>
					</clipPath>
					<path class="st1" d="M181.6,5.3c0,0,50.3,19.7,0,57.4c-50.3,37.7,0,61,0,61s-25.6-24.5,15.2-55C237.5,38.2,199.2,5.9,181.6,5.3
						 M180,55.2c0,0-68.8,30.3,0,82.1c68.8,51.8,0,83.9,0,83.9s34.9-33.7-20.8-75.7C103.5,103.6,155.9,56.1,180,55.2 M310.9,199.6
						c0-25-44.5-45.7-102.6-49.3c5.2,6,8.6,11.6,10.6,16.8c48.4,5.3,84.2,23.7,84.2,45.6c0,1.8-0.2,3.5-0.7,5.2
						C307.9,212.3,310.9,206,310.9,199.6 M150.3,152.3c-47.8,6.6-80.4,25.3-80.4,47.3c0,6.3,2.9,12.4,8.1,18
						c-0.4-1.6-0.6-3.2-0.6-4.8c0-22.6,38.7-41.4,89.4-46.1C159.4,157.3,154,154.7,150.3,152.3 M44.5,218.7
						c0,40.1,64.9,72.6,145,72.6s145-32.5,145-72.6c0-1.4-0.1-2.8-0.3-4.3c-14.2,32.8-73.3,57.4-144,57.4
						c-72.7,0-133.1-26-145.1-60.2C44.7,214,44.5,216.4,44.5,218.7 M335,414.9h7.6v12.9h-23.1v-79.5h-6.9v-12.9h45.7
						c9.2,0,13.7,4.6,13.7,14v38.3c0,9.1-4.7,13.8-14.1,13.8h-14v-12.9h8.5c3.1,0,4.7-1.6,4.7-4.9v-30.3c0-3.3-1.6-5.1-4.5-5.1H335
						V414.9z M305.8,401.5h-42.4c-9.2,0-13.9-4.6-13.9-13.9v-40.7h-6.8v-11.5h22.1v47.7c0,3.6,1.7,5.5,5,5.5h13.7v-53.2h15.3v53.2
						h7.1L305.8,401.5L305.8,401.5z M232.7,401.5h-47.4v-42.7c0-15.5,8.2-23.3,24.8-23.3h22.8v22.2h-13.1v-9.3h-10.8
						c-5.7,0-8.5,3.2-8.5,9.4v30.9h32.3V401.5z M173.7,401.5h-16.8c-7.5,0-11.2-4.1-11.2-12v-41.1h-8.5v-12.9h8.5v-20.3h15.1v20.3
						h12.7v12.9h-12.7v35.6c0,3.3,1.8,4.9,5.4,4.8h4.1c1.3,0,2.4,0,3.4-0.1V401.5z M128.7,376.1H94.6v8.6c0,2.6,1.3,3.9,3.7,3.9H127
						v12.9H92.3c-8.5,0-12.7-4.2-12.7-12.8v-39c0-9.6,4.9-14.3,14.7-14.3h20.6c9.1,0,13.6,4.5,13.7,13.6V376.1z M94.6,363.4h19.2
						v-10.9c0-2.8-1.3-4.2-3.8-4.2H98.7c-2.7,0-4.1,1.6-4.1,4.8V363.4z M44.7,401.5v-49.4c0-2.5-1.4-3.8-4.3-3.8H24.3v53.2H9v-53.2
						H1.9v-12.9h45.4c8.4,0,12.6,4.3,12.6,13.2v40H67v12.9L44.7,401.5L44.7,401.5z"/>
				</g>
				<g>
					<defs>
						<rect id="SVGID_5_" x="-97" y="-189.1" width="595.3" height="841.9"/>
					</defs>
					<clipPath id="SVGID_6_">
						<use xlink:href="#SVGID_5_"  style="overflow:visible;"/>
					</clipPath>
					<path class="st2" d="M23.1,448.4c-0.8,0.5-1.8,0.7-2.9,0.7c-5.1,0-4.8-5.7-3.6-12.8c1.2-7.1,2.9-12.8,8.1-12.8
						s4.8,5.7,3.6,12.8c-0.7,3.9-1.5,7.4-2.8,9.7l-2.3-2.6l-2.5,2.3L23.1,448.4z M27.7,453.1l2.4-2.2l-2.5-2.8
						c2.5-3.1,3.8-7.6,4.6-11.9c1.4-7.6,1.3-15.5-6.9-15.5c-8.3,0-11.1,7.9-12.4,15.5c-1.4,7.8-1.4,15.8,6.9,15.8
						c2.1,0,4-0.5,5.4-1.4L27.7,453.1z"/>
				</g>
				<g>
					<defs>
						<rect id="SVGID_7_" x="-97" y="-189.1" width="595.3" height="841.9"/>
					</defs>
					<clipPath id="SVGID_8_">
						<use xlink:href="#SVGID_7_"  style="overflow:visible;"/>
					</clipPath>
					<path class="st3" d="M52.6,428.7H49l-2.8,15.8c-0.6,3.3-3.4,4.6-5.3,4.6c-3.2,0-2.8-2.9-2.5-4.6l2.8-15.8h-3.5l-2.9,16.3
						c-0.5,2.7-1.2,7,4.7,7c2.2,0,4.7-1.1,6-3h0.1l-0.4,2.5h3.4L52.6,428.7z"/>
				</g>
				<g>
					<defs>
						<rect id="SVGID_9_" x="-97" y="-189.1" width="595.3" height="841.9"/>
					</defs>
					<clipPath id="SVGID_10_">
						<use xlink:href="#SVGID_9_"  style="overflow:visible;"/>
					</clipPath>
					<path class="st4" d="M64.5,445.1c-0.4,2-2.9,4-5.3,4c-2.4,0-2.9-1.6-2.5-3.9c0.4-2,1.1-2.9,2.4-3.6c1.8-1,4.9-1.3,6.5-2.7
						L64.5,445.1z M58.8,435.6l0-0.2c0.1-0.8,0.8-4.4,4.6-4.4c2.4,0,3.4,1.2,3,3.3c-0.3,1.9-0.5,2.6-3.2,3.4l-5,1.4
						c-3.1,0.9-4.8,3.1-5.4,6.2c-0.7,4,0.8,6.6,5,6.6c2.1,0,4.5-1.2,6-3.3h0.1c-0.4,3.2,1.3,3.2,2.6,3.2c0.9,0,1.8-0.2,2.1-0.2
						l0.4-2.4c-0.2,0.1-0.4,0.2-0.9,0.2c-1.1,0-0.9-0.9-0.8-1.9l2.3-13c0.4-2.3,1.1-6.5-5.7-6.5c-5.4,0-8,2.3-8.9,7.4L58.8,435.6
						L58.8,435.6z"/>
				</g>
				<g>
					<defs>
						<rect id="SVGID_11_" x="-97" y="-189.1" width="595.3" height="841.9"/>
					</defs>
					<clipPath id="SVGID_12_">
						<use xlink:href="#SVGID_11_"  style="overflow:visible;"/>
					</clipPath>
					<polygon class="st5" points="72.1,451.4 75.6,451.4 80.9,421.3 77.4,421.3 					"/>
				</g>
				<g>
					<defs>
						<rect id="SVGID_13_" x="-97" y="-189.1" width="595.3" height="841.9"/>
					</defs>
					<clipPath id="SVGID_14_">
						<use xlink:href="#SVGID_13_"  style="overflow:visible;"/>
					</clipPath>
					<path class="st6" d="M85.1,425.2h3.5l0.7-3.9h-3.5L85.1,425.2z M80.5,451.4H84l4-22.7h-3.5L80.5,451.4z"/>
				</g>
				<g>
					<defs>
						<rect id="SVGID_15_" x="-97" y="-189.1" width="595.3" height="841.9"/>
					</defs>
					<clipPath id="SVGID_16_">
						<use xlink:href="#SVGID_15_"  style="overflow:visible;"/>
					</clipPath>
					<path class="st7" d="M93.8,428.6h-3.3l-0.5,2.8h3.3l-2.9,16.2c-0.5,2.9,0.1,4.3,3.8,4.3c1.5,0,2.4-0.2,2.9-0.2l0.5-2.7
						c-0.4,0-0.8,0.1-1.6,0.1c-1.9,0-2.2-0.7-1.9-2.6l2.7-15.1h3.9l0.5-2.8h-3.9l1.2-6.6h-3.5L93.8,428.6z"/>
				</g>
				<g>
					<defs>
						<rect id="SVGID_17_" x="-97" y="-189.1" width="595.3" height="841.9"/>
					</defs>
					<clipPath id="SVGID_18_">
						<use xlink:href="#SVGID_17_"  style="overflow:visible;"/>
					</clipPath>
					<path class="st8" d="M104.3,451.9l-1,2c-0.6,1.2-1.5,2.2-3.2,2.2c-0.9,0-1.6,0-2-0.1l-0.5,2.8c0.6,0,1.2,0.1,2.6,0.1
						c4.3,0,5.7-2.8,7.1-5.9l10.8-24.2h-3.9l-7.2,18.2h-0.1l-1.3-18.2h-3.9L104.3,451.9z"/>
				</g>
				<g>
					<defs>
						<rect id="SVGID_19_" x="-97" y="-189.1" width="595.3" height="841.9"/>
					</defs>
					<clipPath id="SVGID_20_">
						<use xlink:href="#SVGID_19_"  style="overflow:visible;"/>
					</clipPath>
					<polygon class="st9" points="129.4,451.4 133.9,451.4 142.5,427 142.6,427 142.4,451.4 146.9,451.4 158.4,421.2 154.7,421.2 
						145.8,446 145.7,446 145.8,421.2 141.4,421.2 132.7,446 132.6,446 132.4,421.2 128.7,421.2 					"/>
				</g>
				<g>
					<defs>
						<rect id="SVGID_21_" x="-97" y="-189.1" width="595.3" height="841.9"/>
					</defs>
					<clipPath id="SVGID_22_">
						<use xlink:href="#SVGID_21_"  style="overflow:visible;"/>
					</clipPath>
					<path class="st10" d="M171.9,440.5l0.3-1.4c0.9-4.8,1.3-10.9-5.6-10.9c-7,0-9.2,6.5-10.2,12.2c-1.4,7.7,0.3,11.6,5.8,11.6
						c6.1,0,8.6-5.6,9-8h-3.5c-0.3,1.7-1.4,5.2-4.8,5.2c-4.3,0-3.4-5.2-2.8-8.7L171.9,440.5L171.9,440.5z M160.6,437.6l0.1-0.8
						c0.2-1.3,1.5-5.8,5.2-5.8c3.1,0,3.4,3,3,5.5l-0.2,1.2L160.6,437.6L160.6,437.6z"/>
				</g>
				<g>
					<defs>
						<rect id="SVGID_23_" x="-97" y="-189.1" width="595.3" height="841.9"/>
					</defs>
					<clipPath id="SVGID_24_">
						<use xlink:href="#SVGID_23_"  style="overflow:visible;"/>
					</clipPath>
					<path class="st11" d="M173.9,451.4h3.4l0.5-2.6h0.1c0.2,1.6,1.9,3.2,4.3,3.2c5.2,0,8.3-5.4,9.5-11.9c0.9-4.8,1.3-11.9-4.8-11.9
						c-2.3,0-4.6,1.1-5.8,2.9H181l1.7-9.8h-3.5L173.9,451.4z M179.3,440c0.8-4.5,2.4-9.1,6.1-9.1c3.3,0,3.5,3.6,2.5,9.1
						c-0.9,5.3-2.5,9.1-5.7,9.1C178.4,449.1,178.4,444.8,179.3,440"/>
				</g>
				<g>
					<defs>
						<rect id="SVGID_25_" x="-97" y="-189.1" width="595.3" height="841.9"/>
					</defs>
					<clipPath id="SVGID_26_">
						<use xlink:href="#SVGID_25_"  style="overflow:visible;"/>
					</clipPath>
					<path class="st12" d="M193.2,451.4h3.5l2.8-15.8c0.6-3.3,3.4-4.6,5.3-4.6c3.2,0,2.8,2.9,2.5,4.6l-2.8,15.8h3.5l2.9-16.3
						c0.5-2.7,1.2-7-4.6-7c-2,0-4.7,1.2-6,2.9h-0.1l1.7-9.8h-3.5L193.2,451.4z"/>
				</g>
				<g>
					<defs>
						<rect id="SVGID_27_" x="-97" y="-189.1" width="595.3" height="841.9"/>
					</defs>
					<clipPath id="SVGID_28_">
						<use xlink:href="#SVGID_27_"  style="overflow:visible;"/>
					</clipPath>
					<path class="st13" d="M219.9,449.1c-3.6,0-3.6-4.2-2.7-9.1c0.9-4.9,2.4-9.1,5.9-9.1c3.8,0,3.8,4.2,2.9,9.1
						C225.2,444.9,223.7,449.1,219.9,449.1 M213.5,440c-1.1,6.4-0.5,11.9,6,11.9c6.5,0,9.1-5.5,10.2-11.9c1.1-6.3,0.5-11.9-6-11.9
						C217.2,428.2,214.6,433.7,213.5,440"/>
				</g>
				<g>
					<defs>
						<rect id="SVGID_29_" x="-97" y="-189.1" width="595.3" height="841.9"/>
					</defs>
					<clipPath id="SVGID_30_">
						<use xlink:href="#SVGID_29_"  style="overflow:visible;"/>
					</clipPath>
					<path class="st14" d="M247.5,435.4c0.4-2.7,1-7.2-5.6-7.2c-3.9,0-7.6,2-8.3,6.3c-0.8,4.7,1.9,5.5,4.4,6.4
						c2.6,0.9,5.2,1.6,4.7,4.6c-0.6,3.2-3.3,3.7-4.4,3.7c-3.5,0-3.8-2.5-3.3-5.2h-3.5c-0.4,2.3-1.3,8,6.3,8c4.2,0,7.7-2.3,8.5-7.1
						c0.8-4.5-1.8-5.4-4.4-6.3c-2.6-0.9-5.3-1.4-4.8-4.1c0.6-3.2,3.1-3.5,4.3-3.5c2.6,0,3,1.6,2.5,4.4L247.5,435.4L247.5,435.4z"/>
				</g>
				<g>
					<defs>
						<rect id="SVGID_31_" x="-97" y="-189.1" width="595.3" height="841.9"/>
					</defs>
					<clipPath id="SVGID_32_">
						<use xlink:href="#SVGID_31_"  style="overflow:visible;"/>
					</clipPath>
					<path class="st15" d="M253.8,428.6h-3.3l-0.5,2.8h3.3l-2.9,16.2c-0.5,2.9,0.1,4.3,3.8,4.3c1.5,0,2.4-0.2,2.9-0.2l0.5-2.7
						c-0.4,0-0.8,0.1-1.6,0.1c-1.9,0-2.2-0.7-1.9-2.6l2.7-15.1h3.9l0.5-2.8h-3.9l1.2-6.6H255L253.8,428.6z"/>
				</g>
				<g>
					<defs>
						<rect id="SVGID_33_" x="-97" y="-189.1" width="595.3" height="841.9"/>
					</defs>
					<clipPath id="SVGID_34_">
						<use xlink:href="#SVGID_33_"  style="overflow:visible;"/>
					</clipPath>
					<path class="st16" d="M264.5,425.2h3.5l0.7-3.9h-3.5L264.5,425.2z M259.9,451.4h3.5l4-22.7h-3.5L259.9,451.4z"/>
				</g>
				<g>
					<defs>
						<rect id="SVGID_35_" x="-97" y="-189.1" width="595.3" height="841.9"/>
					</defs>
					<clipPath id="SVGID_36_">
						<use xlink:href="#SVGID_35_"  style="overflow:visible;"/>
					</clipPath>
					<path class="st17" d="M268.1,451.4h3.5l2.8-15.8c0.6-3.3,3.4-4.6,5.3-4.6c3.2,0,2.8,2.9,2.5,4.6l-2.8,15.8h3.5l2.9-16.3
						c0.5-2.7,1.2-7-4.7-7c-2.2,0-4.7,1.1-6,3H275l0.4-2.5h-3.4L268.1,451.4z"/>
				</g>
				<g>
					<defs>
						<rect id="SVGID_37_" x="-97" y="-189.1" width="595.3" height="841.9"/>
					</defs>
					<clipPath id="SVGID_38_">
						<use xlink:href="#SVGID_37_"  style="overflow:visible;"/>
					</clipPath>
					<path class="st18" d="M306.3,428.7h-3.4l-0.5,2.7h-0.1c-0.2-1.7-1.9-3.3-4.3-3.3c-5.7,0-8.4,5.6-9.5,11.9
						c-0.5,3.1-1.6,11.3,5,11.3c2.2,0,4.5-1.1,5.6-2.8h0.1l-0.5,2.7c-0.3,1.6-0.8,5.2-5.3,5.2c-1.9,0-3.3-0.8-3.1-2.9h-3.5
						c-0.4,5.8,5,5.8,6.4,5.8c4.6,0,8.1-2.5,9.3-9.3L306.3,428.7z M298,431c3.8,0,3.7,4.6,2.9,9.1c-0.9,4.8-2.3,8.5-6.1,8.5
						c-3.5,0-3.3-4.7-2.6-8.5C293.2,434.5,294.7,431,298,431"/>
				</g>
				<g>
					<defs>
						<rect id="SVGID_39_" x="-97" y="-189.1" width="595.3" height="841.9"/>
					</defs>
					<clipPath id="SVGID_40_">
						<use xlink:href="#SVGID_39_"  style="overflow:visible;"/>
					</clipPath>
					<path class="st19" d="M388.5,329.2c-5.1,0-9.4-4-9.4-9c0-5.2,4.3-9.5,9.4-9.5c5.1,0,10.1,4.3,10.1,9.5
						C398.6,325.2,393.6,329.2,388.5,329.2 M377.2,320.2c0,5.9,5,10.8,11.3,10.8c6.5,0,11.9-4.9,11.9-10.8c0-6.2-5.5-11.3-11.9-11.3
						C382.2,308.9,377.2,314,377.2,320.2 M385.8,319.5v-4h2.9c1.5,0,3,0.2,3,1.9c0,2-1.7,2.1-3.6,2.1H385.8z M384,326.5h1.8v-5.2
						h2.3l3.8,5.2h1.9l-3.7-5.4c2.1-0.2,3.5-1.3,3.5-3.6c0-2.6-1.4-3.9-4.5-3.9H384L384,326.5L384,326.5z"/>
				</g>
			</g>
		</g>
	</g>
</g>
</svg>
